<?xml version="1.0" standalone="no"?>
<!DOCTYPE svg PUBLIC "-//W3C//DTD SVG 20010904//EN"
 "http://www.w3.org/TR/2001/REC-SVG-20010904/DTD/svg10.dtd">
<svg version="1.0" xmlns="http://www.w3.org/2000/svg"
 width="512.000000pt" height="512.000000pt" viewBox="0 0 512.000000 512.000000"
 preserveAspectRatio="xMidYMid meet">
<metadata>
Created by potrace 1.14, written by Peter Selinger 2001-2017
</metadata>
<g transform="translate(0.000000,512.000000) scale(0.100000,-0.100000)"
fill="#000000" stroke="none">
<path d="M2764 4886 c-56 -24 -104 -118 -82 -159 14 -27 13 -26 168 -131 69
-47 150 -103 180 -125 96 -68 140 -91 181 -91 20 0 44 -7 53 -15 8 -9 19 -17
23 -18 4 -1 7 -6 5 -10 -1 -5 2 -6 8 -2 5 3 21 -5 35 -19 24 -24 25 -29 25
-171 l0 -145 80 0 80 0 0 178 c0 97 -4 182 -8 188 -4 6 -25 24 -48 40 -80 58
-124 101 -124 122 0 29 -21 46 -174 148 -72 48 -157 106 -188 130 -54 40 -115
78 -130 79 -3 0 -10 3 -14 8 -11 10 -35 8 -70 -7z"/>
<path d="M2010 4800 c-100 -12 -162 -81 -170 -190 -4 -52 -9 -67 -25 -75 -11
-5 -31 -20 -43 -33 -13 -12 -28 -20 -34 -16 -6 4 -8 3 -5 -3 4 -6 -19 -30 -51
-53 -31 -24 -63 -50 -69 -58 -9 -11 -13 -66 -13 -194 l0 -178 80 0 80 0 0 138
1 137 90 66 90 67 83 -5 c77 -5 85 -4 123 21 67 45 93 93 93 173 -1 84 -21
127 -76 166 -48 34 -93 45 -154 37z"/>
<path d="M1520 3840 l0 -80 240 0 240 0 0 80 0 80 -240 0 -240 0 0 -80z"/>
<path d="M3226 3899 c-23 -18 -26 -28 -26 -80 l0 -59 240 0 240 0 0 59 c0 52
-3 62 -26 80 -25 20 -40 21 -214 21 -174 0 -189 -1 -214 -21z"/>
<path d="M1360 3400 l0 -200 1240 0 1240 0 0 200 0 200 -1240 0 -1240 0 0
-200z"/>
<path d="M1600 2960 l0 -80 960 0 960 0 0 80 0 80 -960 0 -960 0 0 -80z"/>
<path d="M1840 1720 l0 -1000 720 0 720 0 0 1000 0 1000 -720 0 -720 0 0
-1000z m1127 834 c13 -4 21 -9 19 -13 -1 -3 5 -14 16 -23 10 -10 18 -15 19
-10 0 4 4 -2 9 -13 5 -11 9 -359 9 -773 1 -836 3 -806 -62 -830 -24 -9 -149
-12 -434 -12 l-401 0 -31 29 -31 29 0 765 c0 544 3 773 11 797 21 58 32 59
464 59 215 1 400 -2 412 -5z"/>
<path d="M2240 2255 l0 -145 45 34 c80 62 144 80 275 80 131 0 195 -18 275
-80 l45 -34 0 145 0 145 -320 0 -320 0 0 -145z"/>
<path d="M2412 2050 c-114 -58 -172 -153 -172 -285 0 -132 58 -227 172 -285
53 -26 72 -30 143 -30 71 0 90 4 143 30 114 58 172 153 172 286 0 70 -4 89
-30 142 -58 114 -153 172 -286 172 -70 0 -89 -4 -142 -30z"/>
<path d="M2240 1225 l0 -185 320 0 320 0 0 185 0 185 -45 -34 c-80 -62 -144
-80 -275 -80 -131 0 -195 18 -275 80 l-45 34 0 -185z"/>
<path d="M1520 480 l0 -80 1040 0 1040 0 0 80 0 80 -1040 0 -1040 0 0 -80z"/>
</g>
</svg>
