<?xml version="1.0" encoding="utf-8"?>
<svg viewBox="582.352 -183.343 932.941 1004.993" xmlns="http://www.w3.org/2000/svg">
  <g>
    <path style="fill:#6361ec;stroke:none;stroke-width:1.33333" d="M 707.55 253.023 C 747.401 253.023 802.401 252.6 839.269 252.6 C 847.401 241.847 856.106 231.779 863.55 225.642 C 888.491 205.075 921.66 197.135 952.883 206.405 C 1019.347 226.137 1041.168 309.189 984.883 353.465 C 976.03 360.429 967.634 368.261 954.251 371.847 L 954.251 499.69 L 1157.251 499.69 L 1157.251 371.847 C 1157.251 371.847 1116.469 358.684 1105.503 339.69 C 1065.783 291.253 1094.265 214.326 1157.251 205.024 L 1157.251 111.589 C 1145.49 109.851 1134.58 104.578 1124.883 97.77 C 1064.359 55.281 1081.299 -32.261 1151.55 -53.058 C 1182.298 -62.161 1218.872 -54.472 1242.216 -32.257 C 1249.401 -25.072 1265.902 -2.349 1267.849 1.024 L 1390.216 1.024 C 1389.322 -19.796 1384.795 -40.843 1377.448 -60.31 C 1371.144 -77.011 1362.398 -92.677 1351.69 -106.977 C 1342.799 -118.85 1332.427 -129.902 1320.883 -139.237 C 1260.092 -188.394 1189.05 -183.23 1115.55 -183.153 L 954.251 -183.153 L 954.251 -56.883 C 998.75 -31.192 1016.769 -4.871 1018.196 25.023 C 1020.628 124.014 869.44 146.855 838.221 54.357 C 826.223 -8.079 862.55 -45.709 904.251 -56.883 L 904.251 -183.153 C 881.331 -183.153 858.648 -180.308 836.883 -172.716 C 819.276 -166.574 802.799 -158.072 787.55 -147.349 C 775.467 -138.853 764.301 -128.791 754.602 -117.643 C 702.275 -57.501 707.55 15.957 707.55 90.357 L 707.55 252.6 M 1207.251 499.69 C 1229.155 497.962 1249.758 494.007 1270.216 485.823 C 1286.97 479.122 1302.615 470.198 1316.883 459.123 C 1393.835 399.39 1390.216 312.754 1390.216 225.023 L 1390.216 49.828 C 1343.857 49.828 1283.697 49.815 1267.849 49.828 C 1249.531 82.604 1235.339 95.668 1207.251 111.589 L 1207.251 205.024 C 1228.239 217.141 1240.668 222.342 1253.31 238.357 C 1289.295 284.843 1264.919 358.181 1207.251 371.847 M 707.55 302.357 C 707.55 413.398 793.21 499.69 904.251 499.69 C 904.251 456.847 904.388 413.909 904.251 371.847 C 896.857 369.865 883.058 363.999 876.883 360.095 C 857.323 347.729 841.381 326.538 839.269 302.357 L 707.55 302.357 Z" id="path1207"/>
    <path d="M 1473.893 579.45 L 1473.893 601.45 L 1515.293 601.45 L 1515.293 557.45 L 1473.893 557.45 L 1473.893 579.45 Z M 641.393 564.77 C 640.853 564.81 638.953 564.93 637.193 565.05 C 623.553 565.97 612.433 568.67 604.993 572.89 C 593.413 579.45 587.653 590.09 586.093 607.85 C 585.553 614.15 585.653 627.51 586.313 634.85 C 588.293 657.13 595.853 666.27 618.293 673.55 C 623.093 675.09 629.313 676.71 637.933 678.65 C 641.933 679.55 647.353 680.83 649.993 681.49 C 664.353 685.09 668.993 687.99 670.493 694.27 C 671.533 698.65 671.533 709.13 670.513 713.85 C 668.713 722.03 663.293 725.01 649.353 725.41 C 631.033 725.97 613.953 723.55 593.433 717.51 C 591.353 716.91 589.593 716.49 589.493 716.57 C 589.313 716.79 582.233 749.65 582.353 749.77 C 582.613 750.03 589.233 752.63 592.293 753.67 C 604.273 757.77 616.933 760.33 631.793 761.67 C 635.633 762.01 650.213 762.13 655.193 761.87 C 681.913 760.43 697.193 754.59 705.813 742.51 C 712.673 732.91 715.173 719.07 714.313 695.45 C 713.853 682.89 712.813 677.03 709.993 671.15 C 704.493 659.71 692.193 653.13 662.893 645.93 C 644.333 641.37 641.913 640.71 638.233 639.25 C 633.093 637.19 630.733 634.85 629.693 630.75 C 628.953 627.85 628.653 619.57 629.113 614.95 C 629.913 606.97 633.133 603.69 641.493 602.35 C 648.233 601.27 664.413 601.63 678.393 603.17 C 683.793 603.77 693.293 605.11 700.573 606.31 C 703.833 606.85 705.773 607.09 705.813 606.95 C 705.933 606.57 710.113 570.99 710.033 570.93 C 709.893 570.77 701.933 569.23 697.313 568.47 C 687.633 566.85 679.173 565.85 667.993 565.03 C 665.173 564.83 643.573 564.61 641.393 564.77 Z M 1181.193 567.69 C 1180.993 568.27 1122.893 759.05 1122.893 759.15 C 1122.893 759.21 1132.993 759.23 1145.333 759.21 L 1167.793 759.15 L 1172.833 740.95 C 1175.593 730.93 1177.913 722.55 1177.993 722.29 L 1178.093 721.85 L 1210.253 721.89 L 1242.393 721.95 L 1247.493 740.35 C 1250.313 750.47 1252.653 758.87 1252.693 759.01 C 1252.773 759.21 1257.373 759.25 1275.213 759.21 L 1297.613 759.15 L 1268.293 663.35 L 1238.953 567.55 L 1210.113 567.49 C 1187.153 567.45 1181.253 567.49 1181.193 567.69 Z M 1221.053 645.69 C 1227.013 667.61 1231.893 685.61 1231.893 685.69 C 1231.893 685.79 1221.993 685.85 1209.873 685.85 C 1191.613 685.85 1187.873 685.81 1187.953 685.59 C 1188.013 685.43 1192.993 667.43 1199.013 645.59 C 1205.033 623.73 1210.033 605.85 1210.093 605.85 C 1210.153 605.85 1215.093 623.79 1221.053 645.69 Z M 793.693 616.17 C 790.213 616.35 785.973 616.71 783.993 616.97 C 758.033 620.47 742.833 634.15 738.693 657.79 C 737.653 663.73 737.633 663.97 737.553 686.35 C 737.453 708.37 737.533 711.69 738.313 717.23 C 739.733 727.39 743.313 736.37 748.593 742.95 C 756.053 752.27 767.553 758.33 782.373 760.73 C 789.193 761.85 793.853 762.13 802.793 761.99 C 813.473 761.81 822.493 760.81 833.493 758.55 C 841.333 756.95 852.893 753.63 852.893 753.01 C 852.893 752.77 847.113 722.89 846.973 722.43 C 846.893 722.13 846.793 722.13 845.933 722.37 C 837.773 724.85 823.833 727.15 812.553 727.87 C 807.593 728.19 797.073 728.01 794.333 727.57 C 786.133 726.23 782.233 723.49 780.273 717.63 C 779.453 715.15 779.093 712.59 778.953 707.79 L 778.833 703.65 L 854.493 703.65 L 854.493 688.89 C 854.493 673.57 854.313 667.01 853.773 662.19 C 851.333 640.05 841.673 626.43 823.853 620.03 C 819.353 618.43 813.133 617.11 807.293 616.57 C 804.193 616.27 796.153 616.03 793.693 616.17 Z M 801.493 648.85 C 805.833 649.39 808.613 650.57 810.913 652.85 C 814.173 656.11 815.153 659.51 815.173 667.75 L 815.193 672.55 L 778.993 672.55 L 778.933 669.55 C 778.773 661.31 780.193 656.61 783.853 653.21 C 786.113 651.13 788.913 649.79 792.313 649.17 C 795.233 648.63 798.713 648.51 801.493 648.85 Z M 1060.793 616.27 C 1052.933 616.81 1043.793 619.19 1034.653 623.07 C 1031.093 624.59 1025.773 627.27 1023.033 628.91 L 1020.873 630.21 L 1020.633 629.59 C 1020.493 629.23 1019.513 626.73 1018.473 624.01 L 1016.593 619.05 L 984.093 619.05 L 984.093 720.35 C 984.093 813.29 984.113 821.65 984.413 821.65 C 984.593 821.65 993.813 820.39 1004.893 818.85 C 1015.993 817.31 1025.153 816.05 1025.273 816.05 C 1025.433 816.05 1025.493 807.57 1025.493 787.09 L 1025.493 758.11 L 1027.153 758.47 C 1034.273 760.05 1043.553 761.27 1052.853 761.87 C 1057.693 762.17 1067.373 762.01 1070.593 761.57 C 1084.173 759.67 1093.653 754.27 1099.973 744.85 C 1101.493 742.59 1103.873 737.71 1104.853 734.85 C 1106.373 730.41 1107.353 725.63 1108.033 719.55 C 1108.293 717.23 1108.353 712.57 1108.433 692.35 C 1108.533 667.57 1108.433 662.07 1107.793 656.85 C 1105.793 640.41 1099.473 628.91 1088.853 622.33 C 1083.093 618.75 1076.293 616.79 1067.793 616.25 C 1064.493 616.03 1063.993 616.03 1060.793 616.27 Z M 1054.093 652.25 C 1058.073 652.63 1060.573 653.61 1062.713 655.61 C 1064.853 657.61 1066.033 660.01 1066.593 663.51 C 1067.033 666.25 1067.033 711.95 1066.593 714.51 C 1065.633 719.97 1063.013 723.41 1058.513 725.05 C 1056.113 725.93 1054.213 726.13 1049.293 725.99 C 1044.793 725.87 1040.313 725.41 1035.093 724.57 C 1031.953 724.05 1027.673 723.21 1026.253 722.85 L 1025.493 722.63 L 1025.493 663.09 L 1026.353 662.35 C 1027.673 661.21 1031.593 658.63 1033.913 657.39 C 1039.953 654.15 1045.453 652.51 1051.593 652.07 C 1051.813 652.07 1052.933 652.15 1054.093 652.25 Z M 1396.993 616.17 C 1385.193 616.87 1370.113 621.83 1358.253 628.91 L 1356.113 630.19 L 1355.133 627.67 C 1354.593 626.29 1353.633 623.77 1352.993 622.09 L 1351.813 619.05 L 1319.293 619.05 L 1319.293 720.35 C 1319.293 813.95 1319.313 821.65 1319.613 821.65 C 1319.793 821.65 1329.033 820.39 1340.133 818.85 C 1351.233 817.31 1360.393 816.05 1360.493 816.05 C 1360.613 816.05 1360.693 805.39 1360.693 787.09 L 1360.693 758.13 L 1364.353 758.87 C 1370.393 760.09 1375.653 760.81 1383.893 761.59 C 1388.593 762.03 1401.673 762.09 1404.893 761.69 C 1411.093 760.91 1416.793 759.29 1421.473 756.91 C 1425.313 754.99 1427.653 753.29 1430.693 750.25 C 1436.533 744.41 1440.093 737.23 1442.093 727.25 C 1443.573 719.85 1443.693 716.99 1443.693 689.05 C 1443.693 661.27 1443.573 658.49 1442.093 651.05 C 1438.033 630.65 1425.973 618.89 1406.693 616.57 C 1404.093 616.27 1399.073 616.05 1396.993 616.17 Z M 1389.493 652.25 C 1392.013 652.49 1393.453 652.89 1395.433 653.85 C 1398.493 655.35 1400.473 658.01 1401.553 662.05 L 1401.993 663.75 L 1401.993 714.35 L 1401.553 716.03 C 1400.313 720.65 1397.513 723.83 1393.533 725.13 C 1390.913 725.99 1389.593 726.11 1384.693 725.99 C 1380.253 725.87 1377.473 725.61 1371.993 724.83 C 1369.253 724.43 1362.933 723.23 1361.453 722.83 L 1360.693 722.63 L 1360.693 663.05 L 1361.853 662.15 C 1368.393 656.93 1377.613 652.95 1384.753 652.27 C 1387.073 652.03 1387.373 652.03 1389.493 652.25 Z M 957.093 616.77 C 948.073 619.13 933.953 625.29 924.593 630.95 C 923.033 631.91 922.153 632.33 922.073 632.19 C 922.013 632.05 921.333 629.05 920.593 625.49 L 919.233 619.05 L 884.693 619.05 L 884.693 759.25 L 926.093 759.25 L 926.093 673.69 L 928.253 672.29 C 935.393 667.67 947.793 661.55 959.933 656.65 C 961.613 655.97 963.053 655.35 963.133 655.29 C 963.213 655.21 962.513 646.55 961.573 636.05 C 960.653 625.55 959.893 616.79 959.893 616.59 C 959.893 616.13 959.413 616.15 957.093 616.77 Z M 1473.893 689.15 L 1473.893 759.25 L 1515.293 759.25 L 1515.293 619.05 L 1473.893 619.05 L 1473.893 689.15 Z" id="path18" style="stroke: rgb(255, 255, 255); stroke-width: 0.2; stroke-miterlimit: 4; stroke-dasharray: none; stroke-opacity: 1; fill: rgb(255, 255, 255);"/>
  </g>
</svg>